# xmcd
#
# Track frame offsets: 
#        150
#        19972
#        32374
#        52058
#        65687
#        79527
#        115154
#        141688
#        155768
#        191942
#        215500
#        229321
#        244757
#        263146
#        273790
#        288757
#        299202
#        313758
#
# Disc length: 4438 seconds
#
# Revision: 0
# Processed by: cddbd v1.5.1PL2 Copyright (c) Steve Scherf et al.
# Submitted via: ExactAudioCopy v0.95b4
#
DISCID=1f115412
DTITLE=Mestre Tonho Matéria - Sou Mangangá
DYEAR=2005
DGENRE=Brasil
TTITLE0=Sou Mangangá
TTITLE1=Fest Na Mangangá
TTITLE2=Praticando Capoeira
TTITLE3=Capoeira De Rua
TTITLE4=Toque De Prima
TTITLE5=Ladainha Para Camafeu
TTITLE6=Faca De Tucum
TTITLE7=Boa Gente
TTITLE8=Corrida De Bimba
TTITLE9=Só Joga Mulher
TTITLE10=Capoeiragem
TTITLE11=Corrida De São Bento Grande
TTITLE12=Essa Arte
TTITLE13=Vamos Capoeirá
TTITLE14=Iúna Verdadeira
TTITLE15=Sete Encruzilhadas
TTITLE16=Samba De Roda
TTITLE17=Mangangá
EXTD=
EXTT0=
EXTT1=
EXTT2=
EXTT3=
EXTT4=
EXTT5=
EXTT6=
EXTT7=
EXTT8=
EXTT9=
EXTT10=
EXTT11=
EXTT12=
EXTT13=
EXTT14=
EXTT15=
EXTT16=
EXTT17=
PLAYORDER=
